<svg width="486" height="388" xmlns="http://www.w3.org/2000/svg" viewBox="0 0 486 388">
  <path d="M434.1,28.05c-16.5,7.5-32.9,15.4-49,23.8-32.2,16.7-63.7,34.8-94.6,53.9q-28.65,17.7-56.7,36.6l-.6-.3a6,6,0,0,0-1.2-.2,14.08,14.08,0,0,0-2.1.1,37.15,37.15,0,0,0-7.4,2.2,130.24,130.24,0,0,0-13.7,6.2c-4.5,2.3-8.9,4.6-13.2,7.1-2.2,1.2-4.3,2.5-6.4,3.8s-4.2,2.6-6.4,3.9h0l.6-1.2a74.91,74.91,0,0,0,4.1-10.2,49,49,0,0,0,1.3-5.5c.1-.6.1-1.3.2-1.9,4.8-4.6,9.6-9.2,14.4-13.9l10.7-10.4c3.6-3.5,7.2-6.9,10.7-10.5s6.8-7.3,9.9-11.2c1.6-2,3.1-4,4.5-6.1a38.6,38.6,0,0,0,3.7-6.6,11.94,11.94,0,0,0,1.1-3.8,3.45,3.45,0,0,0-.7-2.3,3.1,3.1,0,0,0-2.3-.8,12.44,12.44,0,0,0-3.9,1,35.92,35.92,0,0,0-3.4,1.7,107.81,107.81,0,0,0-12.4,8.4c-7.9,6.1-15.5,12.6-22.8,19.3s-14.6,13.5-21.7,20.5c-1.4,1.4-2.9,2.8-4.3,4.2l-1,.2-2.7.6a82.62,82.62,0,0,0-20.5,7.5c-2.3,1.2-4.6,2.5-6.8,3.9,2.4-5.1,4.7-10.2,7.2-15.2l10.6-22.2L165,99l7-5.9c2.9-2.4,5.6-4.8,8.6-7.1l8.7-6.9,4.4-3.5,4.5-3.3c11.8-9,24-17.5,36.3-25.8l9.3-6.1,4.7-3.1c1.6-1,3.2-2,4.7-2.9l9.5-5.8c3.2-1.9,6.3-3.9,9.6-5.7l9.7-5.5,4.8-2.8c1.6-.9,3.2-1.9,4.9-2.7,6.6-3.4,13.2-6.9,19.7-10.4-6.7,3.2-13.4,6.4-20.1,9.7-1.7.8-3.3,1.7-5,2.6l-4.9,2.6-9.9,5.3c-3.3,1.7-6.5,3.7-9.7,5.5l-9.6,5.7c-1.6,1-3.2,1.9-4.8,2.9l-4.7,3-9.4,6c-12.5,8-24.7,16.7-36.7,25.6l-4.5,3.3-4.4,3.4L178.9,84c-3,2.3-5.8,4.7-8.7,7.1l-1.9,1.6c4.2-8.7,8.5-17.3,12.9-25.9,3.6-7.4,7.3-14.7,11.1-22,1.9-3.7,3.8-7.3,5.7-10.9.9-1.8,1.9-3.6,2.9-5.4l1.5-2.7c.5-.9,1.1-1.8,1.6-2.6-.6.9-1.1,1.7-1.7,2.6l-1.6,2.7c-1.1,1.8-2.1,3.6-3.1,5.3l-6,10.8c-3.9,7.2-7.8,14.4-11.7,21.7-5.2,9.9-10.3,19.8-15.4,29.8l-2.8,2.4c-2.8,2.4-5.6,4.9-8.4,7.4s-5.6,4.9-8.3,7.5l-8.1,7.7-4.1,3.8-4,4-7.9,7.9-7.7,8.1c-1.3,1.4-2.6,2.7-3.8,4.1l-3.7,4.2-3.7,4.2-1.8,2.1-1.8,2.2c-2.3,2.9-4.7,5.8-7,8.7l-6.7,9c-2.1,3.1-4.2,6.2-6.2,9.4-1,1.6-1.9,3.2-2.8,4.8s-1.8,3.3-2.6,5A78,78,0,0,0,68.9,209a38,38,0,0,0-1.9,11.1,17.34,17.34,0,0,0,3.3,10.6,15,15,0,0,0,9.5,5.5,15.08,15.08,0,0,1-9.1-5.8A16.62,16.62,0,0,1,67.8,220a36.3,36.3,0,0,1,2.1-10.8,75.83,75.83,0,0,1,4.5-10.1c6.9-13.1,16.1-24.8,25.8-36.1l1.8-2.1,1.9-2.1,3.7-4.1,3.7-4.1c1.2-1.4,2.5-2.7,3.8-4l7.7-8.1,7.9-7.8,4-3.9,4.1-3.8,8.1-7.6c2.7-2.5,5.6-4.9,8.3-7.4,1.9-1.7,3.9-3.4,5.8-5.1l-3.6,7.2c-6.9,13.7-13.5,27.5-20.1,41.4-2.4,1.7-4.7,3.4-6.9,5.2a130.18,130.18,0,0,0-15.5,15.1,128.18,128.18,0,0,0-13,17.3,143.31,143.31,0,0,1,29.4-31.3c1.5-1.2,3-2.3,4.6-3.4v.1c-3.5,7.5-7,14.9-10.3,22.4l-5.1,11.2-4.9,11.3-2.4,5.7-2.4,5.7-4.7,11.4-4.5,11.5c-.7,1.9-1.5,3.8-2.2,5.8l-2.1,5.8a1.45,1.45,0,0,0-.2.7c-8.4,7.2-16.8,14.4-24.9,21.9a377.8,377.8,0,0,0-39.3,37.7,248.59,248.59,0,0,0-17.3,21.1,126,126,0,0,0-7.5,11.5,57.71,57.71,0,0,0-5.6,12.7A27.71,27.71,0,0,0,1.4,358a15.82,15.82,0,0,0,1.6,7.3,13.68,13.68,0,0,0,2.2,3,30.7,30.7,0,0,0,2.6,2.5,24.85,24.85,0,0,0,6.3,3.7,27.26,27.26,0,0,0,14.1,1.2,56,56,0,0,0,13.4-4,117.65,117.65,0,0,0,19.8-11.3c-2.1,8.7-4,17.4-5.7,26.2,2.1-9,4.4-18,6.9-26.9.9-.7,1.9-1.3,2.8-2a253.2,253.2,0,0,0,21.1-17.4,500.41,500.41,0,0,0,38-39.1q18-20.55,34.2-42.4c5.4-7.3,10.7-14.7,15.8-22.3s9.9-15.2,14.4-23.2l1.3-2.3-2.6.3a43.84,43.84,0,0,1-7.2.3,18.57,18.57,0,0,1-3.4-.5,5.1,5.1,0,0,1-2.4-1.4,3.11,3.11,0,0,1-.4-2.6,15.21,15.21,0,0,1,1.1-3.2,43.94,43.94,0,0,1,3.8-6.1c.7-1,1.5-2,2.2-2.9a32.18,32.18,0,0,1,2.4-2.8A63.82,63.82,0,0,1,189,187q5.55-4.95,11.4-9.6c7.7-6.2,15.7-12.3,23.3-18.7,1.9-1.6,3.8-3.3,5.6-5a36.69,36.69,0,0,0,5.1-5.9,6.11,6.11,0,0,0,.9-2,3.21,3.21,0,0,0,.1-1.4,4.33,4.33,0,0,0-.1-.5q27.75-18.9,56.3-36.8c30.8-19.2,62.1-37.6,94.1-54.5,16-8.5,32.3-16.6,48.7-24.2s33.2-14.7,50.2-20.9Q459,16.75,434.1,28.05ZM196.8,159.35c4.3-2.5,8.7-4.8,13.1-7a135.29,135.29,0,0,1,13.5-6,44.84,44.84,0,0,1,6.9-2,1.27,1.27,0,0,0,.6-.1c-10.5,7.1-20.9,14.2-31.2,21.5-10.1,7.1-20.1,14.4-30,21.7,1-1.5,2-3.1,3-4.7,2.9-4.6,5.8-9.4,8.3-14.2C186.4,165.65,191.5,162.25,196.8,159.35Zm-11.9-6.5a91.58,91.58,0,0,1-4,9.8c-.8,1.7-1.7,3.3-2.5,4.9a18.65,18.65,0,0,1-2,1,43.19,43.19,0,0,1-6.7,2.8,5.08,5.08,0,0,1-1.7.3,2,2,0,0,1-1.2-.1c-.1,0,0,0-.1-.1V171a5.85,5.85,0,0,1,.6-1.5,32.79,32.79,0,0,1,4.3-5.7c3.3-3.7,6.8-7.3,10.3-10.8,1.3-1.3,2.6-2.6,4-3.9A34.86,34.86,0,0,1,184.9,152.85Zm-7.7-20.8c7.2-6.9,14.4-13.7,21.9-20.3s15-13.1,22.9-19a109.56,109.56,0,0,1,12.3-8.2c1.1-.6,2.2-1.1,3.3-1.6a10.57,10.57,0,0,1,3.3-.8c2.3-.3,1.4,2.8.5,4.9a48.86,48.86,0,0,1-3.6,6.3c-1.4,2-2.9,4-4.4,5.9a148.1,148.1,0,0,1-9.9,11.1c-3.5,3.5-7.1,6.9-10.7,10.4l-10.7,10.3-13.2,12.6a5.85,5.85,0,0,0-.2-1.3,10.21,10.21,0,0,0-1.1-2.9,7.19,7.19,0,0,0-2.2-2.4,11.23,11.23,0,0,0-5.7-1.8,25.62,25.62,0,0,0-5.6.3l-.5.1Zm-75.6,107.7c.7-1.9,1.5-3.8,2.3-5.7l4.5-11.4,4.8-11.3,2.4-5.7,2.5-5.6,4.9-11.3,5-11.2c3.3-7.5,6.8-14.9,10.2-22.4.6-1.4,1.3-2.8,2-4.2a81.28,81.28,0,0,1,9.1-5.1,79.7,79.7,0,0,1,20.1-6.9c.1,0,.3-.1.4-.1-4.6,4.7-9.2,9.5-13.6,14.4a222,222,0,0,0-18.6,23.4,72.54,72.54,0,0,0-7.2,13.1,25.53,25.53,0,0,0-1.9,7.2,11.53,11.53,0,0,0,.2,3.7,5,5,0,0,0,2,3.1,4.85,4.85,0,0,1-1.9-3.1,11.53,11.53,0,0,1-.2-3.7,25.7,25.7,0,0,1,2-7.2,72.16,72.16,0,0,1,7.3-13,231.36,231.36,0,0,1,18.7-23.2q7.05-7.65,14.4-15c.3-.1.7-.1,1-.2l2.6-.3a17.73,17.73,0,0,1,5.1-.2,8.82,8.82,0,0,1,4.4,1.4,5.92,5.92,0,0,1,2.2,3.7,12.17,12.17,0,0,1,.1,3.3c-1.9,1.9-3.9,3.7-5.8,5.6-3.5,3.5-7,7.1-10.4,10.8a34.83,34.83,0,0,0-4.6,6.1,9.26,9.26,0,0,0-.8,2,3.27,3.27,0,0,0,0,1.4,2.81,2.81,0,0,0,1,1.4,4.47,4.47,0,0,0,2.4.4,11.8,11.8,0,0,0,2-.4,59,59,0,0,0,6.3-2.5c-2,3.5-4.1,6.9-6.2,10.3-2.5,3.9-5.2,7.8-7.9,11.7q-25.2,18.75-49.5,38.7l-12.1,10Zm13-6.2c14-11.5,28.3-22.7,42.7-33.7.1-.1.2-.1.3-.2-8.3,11.4-17.1,22.5-26.2,33.3-9.2,11-18.9,21.8-28.8,32.2-5,5.2-10,10.3-15.3,15.2-.2.2-.5.4-.7.6,1.4-4.1,2.9-8.2,4.3-12.4,2.6-7.3,5.3-14.7,8-22C104.1,242.35,109.3,238,114.6,233.55ZM40.4,369a48.07,48.07,0,0,1-12.6,3.8,24.82,24.82,0,0,1-12.7-1,18.37,18.37,0,0,1-5.4-3.2,23.91,23.91,0,0,1-2.3-2.2A12.52,12.52,0,0,1,5.6,364a12.78,12.78,0,0,1-1.3-5.9,23,23,0,0,1,1-6.3,56.71,56.71,0,0,1,5.4-12.1c2.2-3.9,4.7-7.6,7.3-11.3a263.89,263.89,0,0,1,17.1-20.9c12.1-13.4,25.1-26,38.5-38.3,7-6.4,14.1-12.7,21.3-18.8-4.1,11.3-8.1,22.7-11.8,34.1a111.73,111.73,0,0,1-12.1,9.7,35.72,35.72,0,0,1-4.5,2.7,11.72,11.72,0,0,1-2.4.9,20.24,20.24,0,0,1-2.6.4,12.45,12.45,0,0,1-5.1-.1,1.42,1.42,0,0,1-1.1-1.6,6.5,6.5,0,0,1,.9-2.3,21.79,21.79,0,0,1,3.4-4.1,45.86,45.86,0,0,1,3.9-3.7c2.7-2.4,5.5-4.7,8.3-6.9-3,2.1-5.8,4.2-8.6,6.6-1.4,1.2-2.7,2.4-4,3.6a35.21,35.21,0,0,0-3.6,4.1,5.94,5.94,0,0,0-1.1,2.7,2.29,2.29,0,0,0,1.7,2.5,11.9,11.9,0,0,0,5.6.3c.9-.1,1.8-.2,2.8-.4s1.8-.6,2.7-.9a37.17,37.17,0,0,0,4.8-2.7c3.6-2.4,6.9-5,10.2-7.7l-1.2,3.6c-6.8,21.4-13,43-18.4,64.7A133.92,133.92,0,0,1,40.4,369Zm191.7-222.4a29.29,29.29,0,0,1-4.7,5.3c-1.8,1.7-3.6,3.3-5.5,4.9-7.6,6.4-15.5,12.4-23.3,18.6-3.9,3.1-7.8,6.3-11.5,9.6a67.53,67.53,0,0,0-5.4,5.3,34.67,34.67,0,0,0-2.5,2.9c-.8,1-1.6,2-2.3,3a54.69,54.69,0,0,0-4.1,6.5,12,12,0,0,0-1.3,3.9,8.68,8.68,0,0,0-.1,2.3,5,5,0,0,0,.9,2.3,6.36,6.36,0,0,0,3.8,2.4,19.39,19.39,0,0,0,4,.6,43.41,43.41,0,0,0,5.1-.1c-4.1,7.1-8.5,14-13,20.8-5.1,7.5-10.3,14.9-15.7,22.1q-16.2,21.75-34.2,42.2A478.82,478.82,0,0,1,84.4,338a259.64,259.64,0,0,1-20.7,17c1.5-5.4,3-10.7,4.6-16.1,4.6-15.8,9.5-31.4,14.7-47,.8-2.4,1.7-4.9,2.5-7.3,1.1-.9,2.1-1.9,3.2-2.8q8.1-7.35,15.6-15c10.2-10.3,19.9-21,29.3-32s18.4-22.3,26.9-34c1.7-2.3,3.4-4.7,5-7.1,11.7-8.8,23.6-17.5,35.5-26.1,10.4-7.4,20.9-14.7,31.5-22A3,3,0,0,1,232.1,146.55Z" fill="#A3876E"/>
</svg>
